<?xml version="1.0" standalone="no"?><!DOCTYPE svg PUBLIC "-//W3C//DTD SVG 1.1//EN" "http://www.w3.org/Graphics/SVG/1.1/DTD/svg11.dtd"><svg t="1764494784493" class="icon" viewBox="0 0 1024 1024" version="1.1" xmlns="http://www.w3.org/2000/svg" p-id="11376" xmlns:xlink="http://www.w3.org/1999/xlink" width="32" height="32"><path d="M373.840702 202.347171H189.591355a67.836327 67.836327 0 0 0-67.617575 67.836327 65.646714 65.646714 0 0 0 65.647756 67.616533h188.190026l-1.968777-135.45286z" fill="#7585FF" p-id="11377" data-spm-anchor-id="a313x.search_index.0.i18.66f43a81iPdE0v" class=""></path><path d="M793.547376 805.21047H189.372602a67.836327 67.836327 0 0 1-67.398822-67.616533V269.744951a67.836327 67.836327 0 0 0 71.993675 68.05508h501.110891s98.470071-8.53449 98.470071 65.646714v401.763725z" fill="#465CFF" p-id="11378" data-spm-anchor-id="a313x.search_index.0.i16.66f43a81iPdE0v" class=""></path><path d="M474.501428 479.818603a37.638005 37.638005 0 1 0 14.44186 72.211386 37.419252 37.419252 0 0 0-14.442902-72.212427z" p-id="11379"></path><path d="M511.700885 565.596838a60.83415 60.83415 0 0 0-34.792133-109.411885h1.968776a57.550772 57.550772 0 0 1 10.722019 0V418.546948a12.035578 12.035578 0 0 0-5.68966-10.723061 11.816825 11.816825 0 0 0-12.034536 0 12.035578 12.035578 0 0 0-5.68966 10.723061v38.294264a61.052903 61.052903 0 0 0-26.697233 109.412926L328.106755 804.335458h72.649933l51.423607-109.412927a26.696192 26.696192 0 0 1 24.071156-15.098119 26.258686 26.258686 0 0 1 23.851362 15.098119l52.955919 109.412927h73.525987L511.699844 565.596838z m77.683334 228.016601a37.638005 37.638005 0 0 1-26.47848-64.115444 37.419252 37.419252 0 0 1 64.115444 26.477439 37.638005 37.638005 0 0 1-37.636964 37.638005z" fill="#3870B2" p-id="11380"></path><path d="M334.015168 235.609076h258.432634v47.485012H334.015168v-47.485012z" fill="#FFFFFF" p-id="11381"></path><path d="M454.368866 479.818603a37.419252 37.419252 0 1 1-26.697233 10.940772 38.075511 38.075511 0 0 1 26.697233-10.941813z m14.880408-21.883627V418.546948a12.035578 12.035578 0 0 0-5.68966-10.723061 11.816825 11.816825 0 0 0-12.035578 0 12.035578 12.035578 0 0 0-5.68966 10.723061v38.294264a61.052903 61.052903 0 0 0-26.696191 109.412926L279.308183 867.138384a33.260863 33.260863 0 0 0 2.407324 33.479616 33.698369 33.698369 0 0 0 30.417075 14.224149 33.04211 33.04211 0 0 0 27.133698-19.694014l93.220001-200.225604a26.915986 26.915986 0 0 1 24.071156-15.098119 26.258686 26.258686 0 0 1 23.851362 15.098119l95.626283 199.131839a33.04211 33.04211 0 1 0 59.521632-28.885804L491.568323 565.596838a60.615397 60.615397 0 0 0 21.882586-60.614355 61.271656 61.271656 0 0 0-43.765171-46.828754" fill="#073042" p-id="11382"></path><path d="M555.02855 277.404429a17.506485 17.506485 0 0 1-12.691837-29.979569 17.725238 17.725238 0 0 1 30.198322 12.473084 17.506485 17.506485 0 0 1-17.506485 17.506485m-194.535944 0a17.506485 17.506485 0 0 1-12.473084-29.979569 17.725238 17.725238 0 1 1 24.946168 24.946168 17.28669 17.28669 0 0 1-12.473084 5.033401M561.374468 171.272796l35.011929-60.83415a7.439683 7.439683 0 0 0-12.691837-7.438641l-35.449434 61.709161a220.575877 220.575877 0 0 0-180.750343 0l-35.667145-61.709161a7.439683 7.439683 0 0 0-6.34696-3.720883 8.096984 8.096984 0 0 0-6.345918 3.720883 7.439683 7.439683 0 0 0 0 7.439683l35.230681 60.83415a208.321545 208.321545 0 0 0-107.661862 166.525151h422.332751A208.321545 208.321545 0 0 0 561.374468 171.273838" fill="#3DDC84" p-id="11383"></path><path d="M732.933021 467.56323h-27.789957a3.501089 3.501089 0 0 0-3.50213 3.501089v438.745471a3.501089 3.501089 0 0 0 3.282336 3.500047h28.667051a60.83415 60.83415 0 0 0 60.614355-60.833108V406.730122a60.83415 60.83415 0 0 1-61.271655 60.83415z" fill="#7585FF" p-id="11384" data-spm-anchor-id="a313x.search_index.0.i19.66f43a81iPdE0v" class=""></path></svg>